<svg xmlns="http://www.w3.org/2000/svg" width="32" height="32" viewBox="0 0 32 32"><path fill="#fb0789" d="M30.48 6.855H32v3.05h-1.52Zm-1.52-1.52h1.52v1.52h-1.52Zm-3.05 4.57h4.57v1.52h-4.57ZM10.67 9.9H9.15v1.52H7.62v1.53H6.1v1.52H4.58V16H3.05v3.04h1.53v12.19h22.85V19.045h1.53v-3.04h-1.53v-1.53h-1.52v-1.52h-1.52v-1.53h-1.53V9.9h-1.52V8.385h-1.53v-1.53h-1.52v-1.52h-1.52v-1.53h-1.53v1.53h-1.52v1.52h-1.53v1.53h-1.52Zm4.57 16.76h-1.52v-3.05h1.52Zm-3.05-15.24h1.53V9.9h1.52V8.385h1.53V9.9h1.52v1.52h1.52v1.53h1.53v1.52h1.52V16h1.53v1.52h1.52v6.09h-3.05v1.53h3.05v4.57h-6.1v-9.14h-1.52v-1.53h-4.57v1.53h-1.53v9.14H6.1V28.2h3.05v-1.53H6.1V22.1h3.05v-1.52H6.1v-3.05h1.52v-1.52h1.53v-1.53h1.52v-1.52h1.52Zm12.2-7.615h4.57v1.53h-4.57Zm0 4.58h1.52v1.52h-1.52Z"/><path fill="#fb0789" d="M22.86 20.575h1.53v1.52h-1.53Zm0-15.24h1.53v3.05h-1.53Zm-1.52 21.33h3.05v1.53h-3.05Zm-1.53-10.66h3.05v1.52h-3.05Zm-4.57-4.58h3.05v1.53h-3.05Zm-1.52 3.05h3.05v1.53h-3.05Zm-4.57 1.53h3.04v1.52H9.15Zm0-12.2h1.52v3.05H9.15Zm-1.53 19.81h3.05v1.53H7.62Zm0-21.33h1.53v1.52H7.62ZM3.05.765h4.57v1.52H3.05Zm-1.52 6.09h7.62v1.53H1.53Zm0-4.57h1.52v1.52H1.53ZM0 3.805h1.53v3.05H0Z"/></svg>