<svg xmlns="http://www.w3.org/2000/svg" width="32" height="32" viewBox="0 0 32 32"><path fill="#fb0789" d="M30.48 21.33H16.77v-1.52h-1.53v-3.05h-1.52v-3.05h-1.53v-3.04h-1.52V9.14h13.71V7.62H7.62v1.52H6.1V6.09h1.52V4.57H0v1.52h1.53v13.72H0v3.05h1.53V32h28.95v-9.14H32v-3.05h-1.52ZM3.05 6.09h1.52v7.62H3.05Zm10.67 24.39h-1.53v-7.62h-1.52v7.62H6.1v-3.05h1.52V25.9H6.1v-3.04H4.57v7.62H3.05V19.81h1.52v-3.05H6.1v-3.05h1.52v-1.52h1.53v1.52h1.52v3.05h1.52v3.05h1.53Zm15.24 0H15.24v-7.62h13.72Z"/><path fill="#fb0789" d="M28.96 16.76h1.52v3.05h-1.52Zm0-13.71h1.52v1.52h-1.52Zm-1.53 10.66h1.53v3.05h-1.53Zm0-12.19h1.53v1.53h-1.53Zm-1.52 9.15h1.52v3.04h-1.52Zm0-6.1h3.05v1.52h-3.05ZM24.38 0h3.05v1.52h-3.05Zm3.05 24.38h-4.57v4.57h4.57Zm-1.52 3.05h-1.53V25.9h1.53ZM24.38 9.14h1.53v1.53h-1.53Zm0-6.09h1.53v1.52h-1.53Zm-4.57 15.23v1.53h6.1v-3.05h-1.53v1.52zm3.05-3.04h1.52v1.52h-1.52Zm0-13.72h1.52v1.53h-1.52Zm-1.52 22.86h-4.57v4.57h4.57Zm-1.53 3.05h-1.52V25.9h1.52Zm-1.52-10.67h1.52v1.52h-1.52Zm0-1.52h4.57v-1.53h-6.09v3.05h1.52zm0-13.72h1.52v3.05h-1.52ZM15.24 0h3.05v1.52h-3.05Zm-4.57 4.57h7.62v1.52h-7.62Zm3.05-3.05h1.52v1.53h-1.52ZM10.67 0h3.05v1.52h-3.05ZM6.1 21.33h4.57v1.53H6.1ZM9.15 1.52h1.52v3.05H9.15ZM6.1 0h1.52v1.52H6.1ZM3.05 1.52h1.52v1.53H3.05Z"/></svg>